<svg width="26" height="23" viewBox="0 0 26 23" fill="none" xmlns="http://www.w3.org/2000/svg">
<mask id="path-1-inside-1_149_852" fill="white">
<path fill-rule="evenodd" clip-rule="evenodd" d="M23.5155 0H18L11.3333 6H16.8488L23.5155 0ZM21.3333 6H26V1.8L21.3333 6ZM13.5155 0L6.84879 6H1.25L8 0H13.5155ZM0 3.09725L3.4844 0H1C0.447715 0 0 0.447715 0 1V3.09725Z"/>
</mask>
<path fill-rule="evenodd" clip-rule="evenodd" d="M23.5155 0H18L11.3333 6H16.8488L23.5155 0ZM21.3333 6H26V1.8L21.3333 6ZM13.5155 0L6.84879 6H1.25L8 0H13.5155ZM0 3.09725L3.4844 0H1C0.447715 0 0 0.447715 0 1V3.09725Z" fill="black"/>
<path d="M18 0V-1H17.6163L17.331 -0.743294L18 0ZM23.5155 0L24.1844 0.743294L26.1214 -1H23.5155V0ZM11.3333 6L10.6644 5.25671L8.72738 7H11.3333V6ZM16.8488 6V7H17.2325L17.5178 6.74329L16.8488 6ZM26 6V7H27V6H26ZM21.3333 6L20.6644 5.25671L18.7274 7H21.3333V6ZM26 1.8H27V-0.445361L25.331 1.05671L26 1.8ZM6.84879 6V7H7.23253L7.51776 6.74329L6.84879 6ZM13.5155 0L14.1844 0.743294L16.1214 -1H13.5155V0ZM1.25 6L0.585637 5.25259L-1.3802 7H1.25V6ZM8 0V-1H7.6198L7.33564 -0.747409L8 0ZM3.4844 0L4.14877 0.747409L6.1146 -1H3.4844V0ZM0 3.09725H-1V5.32409L0.664364 3.84466L0 3.09725ZM18 1H23.5155V-1H18V1ZM12.0023 6.74329L18.669 0.743294L17.331 -0.743294L10.6644 5.25671L12.0023 6.74329ZM16.8488 5H11.3333V7H16.8488V5ZM17.5178 6.74329L24.1844 0.743294L22.8465 -0.743294L16.1798 5.25671L17.5178 6.74329ZM26 5H21.3333V7H26V5ZM25 1.8V6H27V1.8H25ZM25.331 1.05671L20.6644 5.25671L22.0023 6.74329L26.669 2.5433L25.331 1.05671ZM7.51776 6.74329L14.1844 0.743294L12.8465 -0.743294L6.17983 5.25671L7.51776 6.74329ZM1.25 7H6.84879V5H1.25V7ZM7.33564 -0.747409L0.585637 5.25259L1.91436 6.74741L8.66436 0.747409L7.33564 -0.747409ZM13.5155 -1H8V1H13.5155V-1ZM2.82004 -0.747409L-0.664364 2.34984L0.664364 3.84466L4.14877 0.747409L2.82004 -0.747409ZM1 1H3.4844V-1H1V1ZM1 1V-1C-0.10457 -1 -1 -0.104569 -1 1H1ZM1 3.09725V1H-1V3.09725H1Z" fill="black" mask="url(#path-1-inside-1_149_852)"/>
<path d="M0.5 7.5H25.5V17C25.5 20.0376 23.0376 22.5 20 22.5H6C2.96243 22.5 0.5 20.0376 0.5 17V7.5Z" fill="black" stroke="black"/>
<line x1="3" y1="16.75" x2="23" y2="16.75" stroke="white" stroke-width="0.5"/>
<path d="M5.436 15L4.14 11.358H4.116C4.12 11.438 4.126 11.546 4.134 11.682C4.142 11.818 4.148 11.964 4.152 12.12C4.156 12.276 4.158 12.43 4.158 12.582V15H3.57V10.716H4.494L5.724 14.154H5.748L7.014 10.716H7.938V15H7.308V12.546C7.308 12.406 7.31 12.262 7.314 12.114C7.322 11.962 7.328 11.82 7.332 11.688C7.34 11.556 7.346 11.448 7.35 11.364H7.326L5.994 15H5.436ZM12.8578 12.852C12.8578 13.184 12.8158 13.486 12.7318 13.758C12.6518 14.026 12.5278 14.258 12.3598 14.454C12.1958 14.65 11.9878 14.8 11.7358 14.904C11.4878 15.008 11.1978 15.06 10.8658 15.06C10.5258 15.06 10.2298 15.008 9.97781 14.904C9.72981 14.796 9.52181 14.646 9.35381 14.454C9.18981 14.258 9.06781 14.024 8.98781 13.752C8.90781 13.48 8.86781 13.178 8.86781 12.846C8.86781 12.406 8.93981 12.022 9.08381 11.694C9.22781 11.366 9.44781 11.11 9.74381 10.926C10.0438 10.742 10.4198 10.65 10.8718 10.65C11.3118 10.65 11.6778 10.742 11.9698 10.926C12.2658 11.106 12.4878 11.362 12.6358 11.694C12.7838 12.022 12.8578 12.408 12.8578 12.852ZM9.55181 12.852C9.55181 13.196 9.59781 13.492 9.68981 13.74C9.78181 13.984 9.92581 14.174 10.1218 14.31C10.3178 14.442 10.5658 14.508 10.8658 14.508C11.1698 14.508 11.4178 14.442 11.6098 14.31C11.8018 14.174 11.9438 13.984 12.0358 13.74C12.1278 13.492 12.1738 13.196 12.1738 12.852C12.1738 12.336 12.0698 11.934 11.8618 11.646C11.6578 11.354 11.3278 11.208 10.8718 11.208C10.5678 11.208 10.3178 11.274 10.1218 11.406C9.92581 11.538 9.78181 11.726 9.68981 11.97C9.59781 12.214 9.55181 12.508 9.55181 12.852ZM16.8502 10.716L15.3382 15H14.6662L13.1602 10.716H13.8262L14.7442 13.404C14.7802 13.5 14.8142 13.604 14.8462 13.716C14.8782 13.824 14.9082 13.932 14.9362 14.04C14.9642 14.148 14.9862 14.25 15.0022 14.346C15.0222 14.25 15.0442 14.148 15.0682 14.04C15.0962 13.932 15.1262 13.822 15.1582 13.71C15.1942 13.598 15.2282 13.494 15.2602 13.398L16.1782 10.716H16.8502ZM20.5416 10.716L19.0296 15H18.3576L16.8516 10.716H17.5176L18.4356 13.404C18.4716 13.5 18.5056 13.604 18.5376 13.716C18.5696 13.824 18.5996 13.932 18.6276 14.04C18.6556 14.148 18.6776 14.25 18.6936 14.346C18.7136 14.25 18.7356 14.148 18.7596 14.04C18.7876 13.932 18.8176 13.822 18.8496 13.71C18.8856 13.598 18.9196 13.494 18.9516 13.398L19.8696 10.716H20.5416ZM22.433 15H20.771V14.628L21.281 14.478V11.244L20.771 11.088V10.716H22.433V11.088L21.929 11.244V14.478L22.433 14.628V15Z" fill="white"/>
</svg>
